<svg xmlns="http://www.w3.org/2000/svg" xmlns:xlink="http://www.w3.org/1999/xlink" width="1080" zoomAndPan="magnify" viewBox="0 0 810 809.999993" height="1080" preserveAspectRatio="xMidYMid meet" version="1.0"><defs><g/><clipPath id="c986bcf5b8"><path d="M 346.207031 371 L 359.074219 371 L 359.074219 392.710938 L 346.207031 392.710938 Z M 346.207031 371 " clip-rule="nonzero"/></clipPath><clipPath id="e92e37146c"><path d="M 346.242188 371.125 L 348.882812 371.125 L 348.882812 379.113281 L 349.335938 378.527344 C 350.480469 377.1875 351.910156 376.523438 353.632812 376.523438 C 355.363281 376.523438 356.695312 376.992188 357.636719 377.929688 C 358.578125 378.867188 359.042969 380.203125 359.042969 381.933594 L 359.042969 392.679688 L 356.402344 392.679688 L 356.402344 382.589844 C 356.402344 381.289062 356.152344 380.351562 355.65625 379.785156 C 355.160156 379.21875 354.347656 378.929688 353.222656 378.929688 C 351.894531 378.929688 350.839844 379.414062 350.054688 380.375 C 349.269531 381.339844 348.882812 382.640625 348.882812 384.28125 L 348.882812 392.683594 L 346.242188 392.683594 Z M 346.242188 371.125 " clip-rule="nonzero"/></clipPath><clipPath id="73fd2c1d0b"><path d="M 362 376.292969 L 377 376.292969 L 377 393.15625 L 362 393.15625 Z M 362 376.292969 " clip-rule="nonzero"/></clipPath><clipPath id="a9a35170c6"><path d="M 372.542969 386.460938 L 372.542969 384.761719 C 372.054688 384.996094 371.511719 385.15625 370.914062 385.246094 L 368.492188 385.597656 C 367.222656 385.773438 366.296875 386.066406 365.707031 386.484375 C 365.117188 386.902344 364.828125 387.464844 364.828125 388.179688 C 364.828125 389.058594 365.066406 389.738281 365.546875 390.207031 C 366.027344 390.679688 366.703125 390.917969 367.582031 390.917969 C 368.972656 390.917969 370.144531 390.539062 371.105469 389.789062 C 371.757812 389.261719 372.195312 388.667969 372.410156 388 L 372.476562 387.671875 C 372.523438 387.113281 372.539062 386.804688 372.539062 386.460938 M 367.070312 393.101562 C 365.53125 393.101562 364.316406 392.695312 363.421875 391.871094 C 362.523438 391.050781 362.070312 389.941406 362.070312 388.542969 C 362.070312 387.136719 362.492188 386.019531 363.339844 385.1875 C 364.1875 384.359375 365.417969 383.839844 367.042969 383.632812 L 370.632812 383.179688 C 370.925781 383.148438 371.207031 383.101562 371.46875 383.035156 C 371.808594 382.945312 372.070312 382.773438 372.257812 382.507812 C 372.445312 382.238281 372.539062 381.910156 372.539062 381.507812 L 372.539062 381.375 C 372.539062 380.535156 372.21875 379.878906 371.582031 379.402344 C 370.949219 378.929688 370.066406 378.691406 368.929688 378.691406 C 367.84375 378.691406 366.996094 378.945312 366.386719 379.449219 C 365.773438 379.949219 365.402344 380.703125 365.28125 381.699219 L 362.847656 381.699219 C 362.976562 379.976562 363.578125 378.683594 364.667969 377.820312 C 365.753906 376.953125 367.304688 376.523438 369.328125 376.523438 C 371.234375 376.523438 372.683594 376.933594 373.683594 377.761719 C 374.683594 378.585938 375.179688 379.789062 375.179688 381.375 L 375.179688 389.996094 C 375.179688 390.257812 375.257812 390.46875 375.421875 390.632812 L 375.800781 390.875 C 376.152344 390.875 376.265625 390.863281 376.417969 390.84375 L 376.734375 390.792969 L 376.910156 392.664062 C 376.65625 392.761719 376.386719 392.839844 376.101562 392.898438 L 375.578125 392.988281 C 374.382812 392.988281 373.660156 392.710938 373.210938 392.164062 C 372.917969 391.800781 372.707031 391.292969 372.582031 390.625 L 371.90625 391.332031 C 370.589844 392.511719 368.972656 393.105469 367.070312 393.105469 " clip-rule="nonzero"/></clipPath><clipPath id="6f57c5f102"><path d="M 380 376.292969 L 387.917969 376.292969 L 387.917969 392.710938 L 380 392.710938 Z M 380 376.292969 " clip-rule="nonzero"/></clipPath><clipPath id="d5b8c90538"><path d="M 380.003906 376.988281 L 382.511719 376.988281 L 382.511719 379.667969 C 382.738281 379.25 382.976562 378.867188 383.230469 378.523438 C 384.230469 377.183594 385.457031 376.515625 386.910156 376.515625 L 387.402344 376.558594 L 387.65625 379.347656 L 387.117188 379.332031 C 385.691406 379.332031 384.585938 379.761719 383.808594 380.617188 C 383.03125 381.46875 382.644531 382.6875 382.644531 384.273438 L 382.644531 392.675781 L 380.003906 392.675781 Z M 380.003906 376.988281 " clip-rule="nonzero"/></clipPath><clipPath id="67b000aa06"><path d="M 389.246094 376.292969 L 410.988281 376.292969 L 410.988281 392.710938 L 389.246094 392.710938 Z M 389.246094 376.292969 " clip-rule="nonzero"/></clipPath><clipPath id="f442a1775c"><path d="M 389.640625 376.988281 L 392.148438 376.988281 L 392.148438 379.320312 L 392.691406 378.617188 C 393.871094 377.21875 395.289062 376.523438 396.929688 376.523438 C 398.335938 376.523438 399.457031 376.941406 400.285156 377.769531 L 401.152344 379.042969 L 401.578125 378.503906 C 402.710938 377.183594 404.0625 376.523438 405.640625 376.523438 C 407.28125 376.523438 408.550781 376.972656 409.441406 377.863281 C 410.335938 378.753906 410.785156 380.023438 410.785156 381.667969 L 410.785156 392.675781 L 408.144531 392.675781 L 408.144531 382.558594 C 408.144531 381.367188 407.898438 380.464844 407.410156 379.847656 C 406.921875 379.230469 406.207031 378.925781 405.269531 378.925781 C 404.125 378.925781 403.21875 379.367188 402.546875 380.261719 C 401.871094 381.152344 401.53125 382.351562 401.53125 383.863281 L 401.53125 392.675781 L 398.890625 392.675781 L 398.890625 381.929688 C 398.890625 380.953125 398.671875 380.207031 398.226562 379.691406 C 397.78125 379.175781 397.132812 378.917969 396.28125 378.917969 C 395.109375 378.917969 394.152344 379.417969 393.402344 380.414062 C 392.652344 381.414062 392.277344 382.695312 392.277344 384.273438 L 392.277344 392.675781 L 389.636719 392.675781 Z M 389.640625 376.988281 " clip-rule="nonzero"/></clipPath><clipPath id="4e1e167bad"><path d="M 413.652344 376.292969 L 428.738281 376.292969 L 428.738281 393.15625 L 413.652344 393.15625 Z M 413.652344 376.292969 " clip-rule="nonzero"/></clipPath><clipPath id="6988d87156"><path d="M 424.257812 386.460938 L 424.257812 384.761719 C 423.769531 384.996094 423.226562 385.15625 422.632812 385.246094 L 420.210938 385.597656 C 418.941406 385.773438 418.015625 386.066406 417.425781 386.484375 C 416.835938 386.902344 416.546875 387.464844 416.546875 388.179688 C 416.546875 389.058594 416.785156 389.738281 417.265625 390.207031 C 417.746094 390.679688 418.421875 390.917969 419.300781 390.917969 C 420.691406 390.917969 421.863281 390.539062 422.824219 389.789062 C 423.476562 389.261719 423.910156 388.667969 424.128906 388 L 424.195312 387.671875 C 424.242188 387.113281 424.261719 386.804688 424.261719 386.460938 M 418.792969 393.101562 C 417.261719 393.101562 416.039062 392.695312 415.144531 391.871094 C 414.246094 391.050781 413.792969 389.941406 413.792969 388.542969 C 413.792969 387.136719 414.214844 386.019531 415.0625 385.1875 C 415.910156 384.359375 417.140625 383.839844 418.765625 383.632812 L 422.355469 383.179688 C 422.648438 383.148438 422.929688 383.101562 423.191406 383.035156 C 423.53125 382.945312 423.792969 382.773438 423.984375 382.507812 C 424.175781 382.238281 424.261719 381.910156 424.261719 381.507812 L 424.261719 381.375 C 424.261719 380.535156 423.941406 379.878906 423.304688 379.402344 C 422.671875 378.929688 421.789062 378.691406 420.652344 378.691406 C 419.570312 378.691406 418.722656 378.945312 418.109375 379.449219 C 417.496094 379.949219 417.128906 380.703125 417.003906 381.699219 L 414.570312 381.699219 C 414.699219 379.976562 415.304688 378.683594 416.390625 377.820312 C 417.476562 376.953125 419.027344 376.523438 421.054688 376.523438 C 422.960938 376.523438 424.410156 376.933594 425.410156 377.761719 C 426.410156 378.585938 426.90625 379.789062 426.90625 381.375 L 426.90625 389.996094 C 426.90625 390.257812 426.984375 390.46875 427.148438 390.632812 L 427.527344 390.875 C 427.878906 390.875 427.992188 390.863281 428.148438 390.84375 L 428.464844 390.792969 L 428.640625 392.664062 C 428.390625 392.761719 428.117188 392.839844 427.832031 392.898438 L 427.308594 392.988281 C 426.117188 392.988281 425.390625 392.710938 424.945312 392.164062 C 424.652344 391.800781 424.4375 391.292969 424.3125 390.625 L 423.640625 391.332031 C 422.316406 392.511719 420.710938 393.105469 418.800781 393.105469 " clip-rule="nonzero"/></clipPath><clipPath id="c67b19693c"><path d="M 384.8125 267.136719 L 447 267.136719 L 447 277.789062 L 384.8125 277.789062 Z M 384.8125 267.136719 " clip-rule="nonzero"/></clipPath><clipPath id="0f589060a2"><path d="M 393.03125 267.5 L 446.9375 267.5 L 445.015625 277.625 L 384.828125 277.625 C 384.828125 277.625 393.03125 267.371094 393.03125 267.5 " clip-rule="nonzero"/></clipPath><clipPath id="183c315564"><path d="M 277.429688 263 L 386.585938 263 L 386.585938 353.664062 L 277.429688 353.664062 Z M 277.429688 263 " clip-rule="nonzero"/></clipPath><clipPath id="d4e2aa340f"><path d="M 343.539062 273.230469 C 327.882812 273.734375 313.628906 283.636719 303.441406 295.683594 C 297.328125 302.910156 292.09375 311.554688 291.886719 321.019531 C 291.765625 326.367188 293.261719 331.613281 293.683594 336.949219 C 294.105469 342.285156 293.203125 348.179688 289.265625 351.800781 C 287.964844 352.996094 286.191406 353.910156 284.476562 353.484375 C 282.738281 353.050781 281.605469 351.390625 280.816406 349.777344 C 278.554688 345.191406 277.699219 340.070312 277.769531 334.988281 C 277.839844 329.777344 278.832031 324.605469 280.203125 319.59375 L 281.207031 316.0625 C 281.582031 315.003906 282.058594 313.964844 282.511719 312.933594 L 285.472656 306.816406 C 287.597656 302.808594 290.011719 298.957031 292.710938 295.308594 C 295.398438 291.671875 298.363281 288.234375 301.585938 285.0625 C 304.785156 281.910156 308.25 279.011719 311.9375 276.445312 C 315.617188 273.882812 319.527344 271.65625 323.617188 269.824219 L 329.199219 267.609375 C 344.582031 262.292969 361.296875 262.574219 377.519531 263.917969 C 380.691406 264.179688 384.386719 264.832031 386.042969 267.425781 C 386.277344 267.789062 386.25 268.269531 386.035156 268.648438 C 384.433594 271.480469 382.488281 274.394531 379.394531 275.265625 C 377.863281 275.695312 376.238281 275.554688 374.65625 275.410156 L 360.355469 274.109375 C 359.683594 274.050781 359.082031 274.546875 359.015625 275.222656 L 357.023438 295.957031 C 356.765625 298.648438 356.410156 301.5625 354.550781 303.53125 C 352.621094 305.578125 349.535156 306.058594 346.730469 305.84375 C 344.390625 305.667969 342.320312 305.324219 339.992188 305.140625 C 339.253906 305.082031 338.527344 304.128906 338.691406 303.402344 L 345.621094 273.226562 C 344.921875 273.214844 344.230469 273.214844 343.539062 273.238281 " clip-rule="nonzero"/></clipPath><clipPath id="087c8ca939"><path d="M 351 284 L 421.640625 284 L 421.640625 344.789062 L 351 344.789062 Z M 351 284 " clip-rule="nonzero"/></clipPath><clipPath id="b828dd7d5c"><path d="M 398.175781 285.371094 C 397.550781 285.96875 397.261719 286.882812 397.539062 288.289062 C 397.75 289.390625 398.269531 290.402344 398.664062 291.449219 C 401.164062 298.117188 398.4375 305.527344 395.34375 311.941406 C 391.917969 319.046875 387.625 326.296875 380.625 329.925781 C 372.144531 334.320312 361.179688 332.585938 353.371094 338.09375 C 351.828125 339.183594 350.371094 341.253906 351.457031 342.789062 C 352.054688 343.640625 353.1875 343.886719 354.214844 344.035156 C 361.691406 345.089844 369.367188 343.980469 376.558594 341.667969 C 390.894531 337.054688 403.597656 327.566406 412.140625 315.167969 C 417.902344 306.804688 421.859375 296.804688 421.171875 286.667969 C 421.125 285.988281 421.011719 285.226562 420.464844 284.824219 C 420.082031 284.542969 419.574219 284.511719 419.101562 284.488281 C 414.660156 284.308594 410.210938 284.265625 405.769531 284.378906 C 403.507812 284.433594 399.761719 283.863281 398.175781 285.367188 " clip-rule="nonzero"/></clipPath><clipPath id="058d9958ba"><path d="M 283.644531 322.601562 L 351.53125 322.601562 L 351.53125 402.472656 L 283.644531 402.472656 Z M 283.644531 322.601562 " clip-rule="nonzero"/></clipPath><clipPath id="ba87182e95"><path d="M 351.140625 322.957031 C 351.144531 322.875 340.042969 322.832031 339.035156 322.855469 C 335.03125 322.945312 332.992188 322.945312 332.183594 327.34375 L 326.320312 359.367188 C 325.496094 363.855469 324.664062 368.378906 322.964844 372.609375 C 321.261719 376.835938 318.613281 380.816406 314.808594 383.339844 C 311.171875 385.753906 306.777344 386.679688 302.496094 387.507812 C 298.210938 388.339844 293.8125 389.160156 290.078125 391.414062 C 286.347656 393.671875 283.359375 397.722656 283.675781 402.074219 L 338.628906 402.101562 C 339.238281 402.101562 339.875 402.09375 340.414062 401.808594 C 341.078125 401.449219 341.457031 400.734375 341.792969 400.058594 L 345.730469 392.199219 C 337.910156 390.359375 329.898438 389.332031 321.867188 389.144531 C 326.628906 384.003906 333.320312 380.863281 337.761719 375.445312 C 342.300781 369.902344 343.992188 362.632812 345.539062 355.640625 C 347.941406 344.839844 350.347656 333.992188 351.136719 322.957031 " clip-rule="nonzero"/></clipPath><clipPath id="17c57631e2"><path d="M 370.167969 289.324219 L 538 289.324219 L 538 461.488281 L 370.167969 461.488281 Z M 370.167969 289.324219 " clip-rule="nonzero"/></clipPath><clipPath id="ea567d3d07"><path d="M 499.289062 390.761719 C 494.335938 382.15625 486.570312 374.796875 479.476562 367.589844 C 469.148438 357.105469 458.972656 343.839844 460.988281 329.261719 C 462.585938 317.699219 472.019531 308.246094 482.960938 304.179688 C 492.027344 300.816406 502.550781 300.746094 511.101562 305.269531 C 517.777344 308.796875 522.9375 315.339844 524.535156 322.628906 C 525.269531 325.976562 529.496094 327.195312 531.644531 324.519531 C 534.4375 321.035156 536.074219 316.128906 537.253906 311.691406 C 537.707031 309.988281 538.160156 308.199219 537.746094 306.484375 C 537.226562 304.347656 535.472656 302.765625 533.734375 301.425781 C 522.960938 293.117188 509.191406 288.796875 495.605469 289.441406 C 468.511719 290.738281 444.089844 311.9375 441.289062 339.3125 C 439.953125 352.375 443.664062 365.890625 451.488281 376.4375 C 460.878906 389.09375 476.25 398.355469 479.535156 413.765625 C 481.796875 424.382812 477.164062 435.90625 468.800781 442.828125 C 460.4375 449.746094 448.824219 452.1875 438.136719 450.292969 C 427.449219 448.398438 417.707031 442.4375 410.285156 434.507812 C 404.285156 428.101562 399.726562 420.480469 393.945312 413.875 C 389.019531 408.242188 382.828125 403.214844 375.6875 401.335938 C 373.292969 400.707031 370.917969 402.207031 370.492188 404.648438 C 369.390625 410.953125 372.910156 417.964844 376.820312 423.472656 C 391.832031 444.621094 415.410156 461.730469 441.335938 461.199219 C 454.441406 460.933594 467.195312 456.179688 478.214844 449.09375 C 486.011719 444.082031 493.136719 437.796875 498.046875 429.941406 C 502.953125 422.085938 505.511719 412.542969 503.984375 403.410156 C 503.226562 398.867188 501.550781 394.6875 499.296875 390.761719 " clip-rule="nonzero"/></clipPath><clipPath id="67fa049d75"><path d="M 207.765625 115.828125 L 602.234375 115.828125 L 602.234375 508 L 207.765625 508 Z M 207.765625 115.828125 " clip-rule="nonzero"/></clipPath><clipPath id="fefdb8dccf"><path d="M 405 494.640625 C 303.378906 494.640625 220.996094 412.785156 220.996094 311.808594 C 220.996094 210.828125 303.378906 128.972656 405 128.972656 C 506.621094 128.972656 589.003906 210.828125 589.003906 311.808594 C 589.003906 412.785156 506.621094 494.640625 405 494.640625 M 405 115.832031 C 296.070312 115.832031 207.765625 203.570312 207.765625 311.808594 C 207.765625 420.042969 296.070312 507.78125 405 507.78125 C 513.929688 507.78125 602.230469 420.042969 602.230469 311.808594 C 602.230469 203.570312 513.929688 115.832031 405 115.832031 " clip-rule="nonzero"/></clipPath><clipPath id="3e972ad3b8"><path d="M 320.914062 172.625 L 475.328125 172.625 L 475.328125 324 L 320.914062 324 Z M 320.914062 172.625 " clip-rule="nonzero"/></clipPath><clipPath id="22f5a931c0"><path d="M 399.007812 196.113281 C 394.878906 198.992188 391.261719 202.523438 388.535156 206.757812 C 383.8125 214.082031 381.664062 223.460938 374.640625 228.625 C 369.855469 232.144531 363.359375 233.191406 359.332031 237.566406 C 361.386719 220.433594 369.425781 203.710938 382.910156 192.953125 C 391.757812 185.894531 402.535156 181.628906 413.488281 178.789062 C 432.558594 173.84375 452.425781 172.96875 472.121094 172.667969 C 473.019531 172.652344 474.109375 172.75 474.496094 173.5625 C 474.695312 173.976562 474.636719 174.460938 474.578125 174.917969 C 470.804688 202.757812 466.230469 230.492188 460.878906 258.074219 C 457.988281 272.953125 454.863281 288.261719 457.761719 303.140625 C 458.570312 307.277344 460.070312 311.652344 463.578125 313.992188 C 467.125 316.355469 472.066406 316.164062 475.234375 319.019531 C 463.789062 321.109375 452.257812 322.71875 440.679688 323.832031 C 437.488281 324.136719 433.484375 323.972656 432.125 321.070312 C 431.503906 319.738281 431.667969 318.195312 431.84375 316.734375 L 445.074219 207.429688 C 442.601562 207.5625 440.765625 209.679688 439.234375 211.625 L 358.980469 313.832031 C 357.664062 315.511719 356.246094 317.265625 354.257812 318.042969 C 352.851562 318.59375 351.296875 318.597656 349.789062 318.59375 L 329.226562 318.546875 C 326.953125 318.539062 324.441406 318.441406 322.792969 316.878906 C 320.792969 314.984375 320.261719 309.503906 321.84375 307.191406 C 324.101562 303.902344 330.753906 303.996094 334.167969 304.21875 C 338.824219 304.535156 343.601562 305.449219 348.085938 304.164062 C 353.539062 302.601562 357.546875 298.085938 361.230469 293.777344 C 390.550781 259.460938 419.171875 224.5625 447.441406 189.375 C 448.109375 188.539062 448.824219 187.527344 448.554688 186.488281 C 448.160156 184.972656 446.140625 184.726562 444.574219 184.800781 C 434.140625 185.277344 423.597656 185.972656 413.632812 189.078125 C 408.472656 190.691406 403.441406 193.015625 399.007812 196.105469 " clip-rule="nonzero"/></clipPath></defs><g clip-path="url(#c986bcf5b8)"><g clip-path="url(#e92e37146c)"><path fill="#231f20" d="M 205.546875 113.609375 L 604.453125 113.609375 L 604.453125 509.851562 L 205.546875 509.851562 Z M 205.546875 113.609375 " fill-opacity="1" fill-rule="nonzero"/></g></g><g clip-path="url(#73fd2c1d0b)"><g clip-path="url(#a9a35170c6)"><path fill="#231f20" d="M 205.546875 113.609375 L 604.453125 113.609375 L 604.453125 509.851562 L 205.546875 509.851562 Z M 205.546875 113.609375 " fill-opacity="1" fill-rule="nonzero"/></g></g><g clip-path="url(#6f57c5f102)"><g clip-path="url(#d5b8c90538)"><path fill="#231f20" d="M 205.546875 113.609375 L 604.453125 113.609375 L 604.453125 509.851562 L 205.546875 509.851562 Z M 205.546875 113.609375 " fill-opacity="1" fill-rule="nonzero"/></g></g><g clip-path="url(#67b000aa06)"><g clip-path="url(#f442a1775c)"><path fill="#231f20" d="M 205.546875 113.609375 L 604.453125 113.609375 L 604.453125 509.851562 L 205.546875 509.851562 Z M 205.546875 113.609375 " fill-opacity="1" fill-rule="nonzero"/></g></g><g clip-path="url(#4e1e167bad)"><g clip-path="url(#6988d87156)"><path fill="#231f20" d="M 205.546875 113.609375 L 604.453125 113.609375 L 604.453125 509.851562 L 205.546875 509.851562 Z M 205.546875 113.609375 " fill-opacity="1" fill-rule="nonzero"/></g></g><g clip-path="url(#c67b19693c)"><g clip-path="url(#0f589060a2)"><path fill="#b12625" d="M 205.546875 113.609375 L 604.453125 113.609375 L 604.453125 509.851562 L 205.546875 509.851562 Z M 205.546875 113.609375 " fill-opacity="1" fill-rule="nonzero"/></g></g><g clip-path="url(#183c315564)"><g clip-path="url(#d4e2aa340f)"><path fill="#231f20" d="M 205.546875 113.609375 L 604.453125 113.609375 L 604.453125 509.851562 L 205.546875 509.851562 Z M 205.546875 113.609375 " fill-opacity="1" fill-rule="nonzero"/></g></g><g clip-path="url(#087c8ca939)"><g clip-path="url(#b828dd7d5c)"><path fill="#231f20" d="M 205.546875 113.609375 L 604.453125 113.609375 L 604.453125 509.851562 L 205.546875 509.851562 Z M 205.546875 113.609375 " fill-opacity="1" fill-rule="nonzero"/></g></g><g clip-path="url(#058d9958ba)"><g clip-path="url(#ba87182e95)"><path fill="#231f20" d="M 205.546875 113.609375 L 604.453125 113.609375 L 604.453125 509.851562 L 205.546875 509.851562 Z M 205.546875 113.609375 " fill-opacity="1" fill-rule="nonzero"/></g></g><g clip-path="url(#17c57631e2)"><g clip-path="url(#ea567d3d07)"><path fill="#a0a0a0" d="M 205.546875 113.609375 L 604.453125 113.609375 L 604.453125 509.851562 L 205.546875 509.851562 Z M 205.546875 113.609375 " fill-opacity="1" fill-rule="nonzero"/></g></g><g clip-path="url(#67fa049d75)"><g clip-path="url(#fefdb8dccf)"><path fill="#b12625" d="M 205.546875 113.609375 L 604.453125 113.609375 L 604.453125 509.851562 L 205.546875 509.851562 Z M 205.546875 113.609375 " fill-opacity="1" fill-rule="nonzero"/></g></g><g clip-path="url(#3e972ad3b8)"><g clip-path="url(#22f5a931c0)"><path fill="#b12625" d="M 205.546875 113.609375 L 604.453125 113.609375 L 604.453125 509.851562 L 205.546875 509.851562 Z M 205.546875 113.609375 " fill-opacity="1" fill-rule="nonzero"/></g></g><g fill="#b12625" fill-opacity="1"><g transform="translate(56.94464, 584.611713)"><g><path d="M 17.515625 -8.515625 L 14.90625 0 L 1.21875 0 L 16.671875 -46.40625 L 30.421875 -46.40625 L 45.859375 0 L 32.171875 0 L 29.5625 -8.515625 Z M 23.359375 -33.765625 C 23.191406 -32.671875 22.945312 -31.300781 22.625 -29.65625 C 22.300781 -28.007812 21.957031 -26.539062 21.59375 -25.25 L 19.703125 -18.484375 L 27.375 -18.484375 L 25.546875 -25.25 C 25.179688 -26.582031 24.828125 -28.066406 24.484375 -29.703125 C 24.140625 -31.347656 23.90625 -32.703125 23.78125 -33.765625 Z M 23.359375 -33.765625 "/></g></g></g><g fill="#b12625" fill-opacity="1"><g transform="translate(101.644082, 584.611713)"><g><path d="M 44.703125 -23.171875 C 44.703125 -16.035156 42.613281 -10.390625 38.4375 -6.234375 C 34.257812 -2.078125 28.460938 0 21.046875 0 L 4.859375 0 L 4.859375 -46.40625 L 20.859375 -46.40625 C 28.484375 -46.40625 34.363281 -44.367188 38.5 -40.296875 C 42.632812 -36.222656 44.703125 -30.515625 44.703125 -23.171875 Z M 20.3125 -35.828125 L 18.125 -35.828125 L 18.125 -10.578125 L 21.046875 -10.578125 C 24.410156 -10.578125 26.984375 -11.671875 28.765625 -13.859375 C 30.554688 -16.054688 31.453125 -19.179688 31.453125 -23.234375 C 31.453125 -27.328125 30.507812 -30.445312 28.625 -32.59375 C 26.738281 -34.75 23.96875 -35.828125 20.3125 -35.828125 Z M 20.3125 -35.828125 "/></g></g></g><g fill="#b12625" fill-opacity="1"><g transform="translate(146.404336, 584.611713)"><g><path d="M 17.515625 -8.515625 L 14.90625 0 L 1.21875 0 L 16.671875 -46.40625 L 30.421875 -46.40625 L 45.859375 0 L 32.171875 0 L 29.5625 -8.515625 Z M 23.359375 -33.765625 C 23.191406 -32.671875 22.945312 -31.300781 22.625 -29.65625 C 22.300781 -28.007812 21.957031 -26.539062 21.59375 -25.25 L 19.703125 -18.484375 L 27.375 -18.484375 L 25.546875 -25.25 C 25.179688 -26.582031 24.828125 -28.066406 24.484375 -29.703125 C 24.140625 -31.347656 23.90625 -32.703125 23.78125 -33.765625 Z M 23.359375 -33.765625 "/></g></g></g><g fill="#b12625" fill-opacity="1"><g transform="translate(191.103777, 584.611713)"><g><path d="M 17.453125 -14.296875 L 17.28125 0 L 3.953125 0 L 7.171875 -46.40625 L 20.5 -46.40625 L 28.765625 -22.5625 C 29.335938 -20.820312 29.804688 -19.320312 30.171875 -18.0625 C 30.535156 -16.8125 30.816406 -15.695312 31.015625 -14.71875 L 31.265625 -14.71875 C 31.429688 -15.695312 31.6875 -16.820312 32.03125 -18.09375 C 32.375 -19.375 32.847656 -20.882812 33.453125 -22.625 L 41.609375 -46.40625 L 54.859375 -46.40625 L 58.21875 0 L 44.828125 0 L 44.53125 -14.296875 C 44.488281 -16.242188 44.488281 -18.140625 44.53125 -19.984375 C 44.570312 -21.828125 44.648438 -23.617188 44.765625 -25.359375 L 44.46875 -25.359375 C 44.144531 -23.617188 43.738281 -21.804688 43.25 -19.921875 C 42.757812 -18.035156 42.191406 -16.097656 41.546875 -14.109375 L 36.921875 0 L 25.1875 0 L 20.375 -14.171875 C 19.726562 -16.117188 19.160156 -18.023438 18.671875 -19.890625 C 18.179688 -21.753906 17.796875 -23.578125 17.515625 -25.359375 L 17.21875 -25.359375 C 17.332031 -23.578125 17.410156 -21.765625 17.453125 -19.921875 C 17.492188 -18.078125 17.492188 -16.203125 17.453125 -14.296875 Z M 17.453125 -14.296875 "/></g></g></g><g fill="#b12625" fill-opacity="1"><g transform="translate(250.885666, 584.611713)"><g/></g></g><g fill="#231f20" fill-opacity="1"><g transform="translate(272.233407, 584.611713)"><g><path d="M 18.0625 -13.5625 L 18.0625 0 L 4.859375 0 L 4.859375 -46.40625 L 21.34375 -46.40625 C 27.507812 -46.40625 32.234375 -45.046875 35.515625 -42.328125 C 38.804688 -39.617188 40.453125 -35.648438 40.453125 -30.421875 C 40.453125 -25.023438 38.71875 -20.863281 35.25 -17.9375 C 31.78125 -15.019531 26.925781 -13.5625 20.6875 -13.5625 Z M 21.34375 -36.078125 L 18.0625 -36.078125 L 18.0625 -23.90625 L 20.6875 -23.90625 C 22.789062 -23.90625 24.410156 -24.441406 25.546875 -25.515625 C 26.679688 -26.585938 27.25 -28.140625 27.25 -30.171875 C 27.25 -32.117188 26.738281 -33.585938 25.71875 -34.578125 C 24.707031 -35.578125 23.25 -36.078125 21.34375 -36.078125 Z M 21.34375 -36.078125 "/></g></g></g><g fill="#231f20" fill-opacity="1"><g transform="translate(312.128361, 584.611713)"><g><path d="M 17.03125 -22.9375 L 17.03125 0 L 4.859375 0 L 4.859375 -48.109375 L 17.03125 -48.109375 L 17.03125 -31.015625 L 17.28125 -30.84375 C 18.53125 -31.8125 19.90625 -32.550781 21.40625 -33.0625 C 22.90625 -33.570312 24.507812 -33.828125 26.21875 -33.828125 C 29.707031 -33.828125 32.351562 -32.851562 34.15625 -30.90625 C 35.957031 -28.957031 36.859375 -26.097656 36.859375 -22.328125 L 36.859375 0 L 24.703125 0 L 24.703125 -19.828125 C 24.703125 -21.535156 24.5 -22.722656 24.09375 -23.390625 C 23.6875 -24.054688 22.9375 -24.390625 21.84375 -24.390625 C 20.988281 -24.390625 20.113281 -24.253906 19.21875 -23.984375 C 18.332031 -23.722656 17.601562 -23.375 17.03125 -22.9375 Z M 17.03125 -22.9375 "/></g></g></g><g fill="#231f20" fill-opacity="1"><g transform="translate(351.475968, 584.611713)"><g><path d="M 22.015625 -3.21875 C 20.554688 -1.757812 19.144531 -0.742188 17.78125 -0.171875 C 16.425781 0.390625 14.859375 0.671875 13.078125 0.671875 C 9.953125 0.671875 7.5 -0.269531 5.71875 -2.15625 C 3.9375 -4.039062 3.046875 -6.566406 3.046875 -9.734375 C 3.046875 -13.222656 4.332031 -15.816406 6.90625 -17.515625 C 9.476562 -19.222656 13.398438 -20.078125 18.671875 -20.078125 L 20.796875 -20.078125 C 20.835938 -20.191406 20.859375 -20.320312 20.859375 -20.46875 C 20.859375 -20.613281 20.859375 -20.925781 20.859375 -21.40625 C 20.859375 -22.5 20.398438 -23.300781 19.484375 -23.8125 C 18.578125 -24.320312 17.171875 -24.578125 15.265625 -24.578125 C 13.679688 -24.578125 12.203125 -24.441406 10.828125 -24.171875 C 9.453125 -23.910156 7.832031 -23.4375 5.96875 -22.75 L 5.96875 -32.296875 C 7.625 -32.785156 9.382812 -33.148438 11.25 -33.390625 C 13.113281 -33.640625 15.082031 -33.765625 17.15625 -33.765625 C 22.832031 -33.765625 26.875 -32.546875 29.28125 -30.109375 C 31.695312 -27.671875 32.90625 -23.695312 32.90625 -18.1875 L 32.90625 0 L 23.484375 0 L 22.265625 -3.15625 Z M 19.46875 -13.875 C 17.800781 -13.875 16.59375 -13.609375 15.84375 -13.078125 C 15.09375 -12.546875 14.71875 -11.632812 14.71875 -10.34375 C 14.71875 -9.363281 14.960938 -8.609375 15.453125 -8.078125 C 15.941406 -7.554688 16.609375 -7.296875 17.453125 -7.296875 C 18.347656 -7.296875 19.226562 -7.507812 20.09375 -7.9375 C 20.96875 -8.363281 21.566406 -8.859375 21.890625 -9.421875 L 21.890625 -13.875 Z M 19.46875 -13.875 "/></g></g></g><g fill="#231f20" fill-opacity="1"><g transform="translate(386.26235, 584.611713)"><g><path d="M 17.03125 -17.765625 L 17.03125 0 L 4.859375 0 L 4.859375 -33.15625 L 17.03125 -33.15625 L 17.03125 -29.203125 L 17.28125 -29.015625 C 18.78125 -30.753906 20.207031 -31.988281 21.5625 -32.71875 C 22.914062 -33.457031 24.363281 -33.828125 25.90625 -33.828125 C 26.3125 -33.828125 26.738281 -33.804688 27.1875 -33.765625 C 27.632812 -33.722656 28.125 -33.640625 28.65625 -33.515625 L 28.65625 -21.046875 C 27.882812 -21.171875 27.34375 -21.242188 27.03125 -21.265625 C 26.726562 -21.285156 26.457031 -21.296875 26.21875 -21.296875 C 23.863281 -21.296875 21.96875 -21.019531 20.53125 -20.46875 C 19.09375 -19.914062 17.925781 -19.015625 17.03125 -17.765625 Z M 17.03125 -17.765625 "/></g></g></g><g fill="#231f20" fill-opacity="1"><g transform="translate(413.750785, 584.611713)"><g><path d="M 17.03125 -22.9375 L 17.03125 0 L 4.859375 0 L 4.859375 -33.15625 L 17.03125 -33.15625 L 17.03125 -30.421875 L 17.28125 -30.234375 C 18.820312 -31.492188 20.351562 -32.40625 21.875 -32.96875 C 23.394531 -33.539062 25.023438 -33.828125 26.765625 -33.828125 C 28.503906 -33.828125 30.019531 -33.519531 31.3125 -32.90625 C 32.613281 -32.300781 33.671875 -31.390625 34.484375 -30.171875 C 36.109375 -31.390625 37.832031 -32.300781 39.65625 -32.90625 C 41.476562 -33.519531 43.425781 -33.828125 45.5 -33.828125 C 48.820312 -33.828125 51.332031 -32.878906 53.03125 -30.984375 C 54.738281 -29.097656 55.59375 -26.3125 55.59375 -22.625 L 55.59375 0 L 43.4375 0 L 43.4375 -20.25 C 43.4375 -21.789062 43.242188 -22.863281 42.859375 -23.46875 C 42.472656 -24.082031 41.789062 -24.390625 40.8125 -24.390625 C 40.125 -24.390625 39.414062 -24.265625 38.6875 -24.015625 C 37.957031 -23.773438 37.164062 -23.414062 36.3125 -22.9375 L 36.3125 0 L 24.15625 0 L 24.15625 -20.25 C 24.15625 -21.789062 23.960938 -22.863281 23.578125 -23.46875 C 23.191406 -24.082031 22.488281 -24.390625 21.46875 -24.390625 C 20.695312 -24.390625 19.90625 -24.253906 19.09375 -23.984375 C 18.289062 -23.722656 17.601562 -23.375 17.03125 -22.9375 Z M 17.03125 -22.9375 "/></g></g></g><g fill="#231f20" fill-opacity="1"><g transform="translate(471.829804, 584.611713)"><g><path d="M 22.015625 -3.21875 C 20.554688 -1.757812 19.144531 -0.742188 17.78125 -0.171875 C 16.425781 0.390625 14.859375 0.671875 13.078125 0.671875 C 9.953125 0.671875 7.5 -0.269531 5.71875 -2.15625 C 3.9375 -4.039062 3.046875 -6.566406 3.046875 -9.734375 C 3.046875 -13.222656 4.332031 -15.816406 6.90625 -17.515625 C 9.476562 -19.222656 13.398438 -20.078125 18.671875 -20.078125 L 20.796875 -20.078125 C 20.835938 -20.191406 20.859375 -20.320312 20.859375 -20.46875 C 20.859375 -20.613281 20.859375 -20.925781 20.859375 -21.40625 C 20.859375 -22.5 20.398438 -23.300781 19.484375 -23.8125 C 18.578125 -24.320312 17.171875 -24.578125 15.265625 -24.578125 C 13.679688 -24.578125 12.203125 -24.441406 10.828125 -24.171875 C 9.453125 -23.910156 7.832031 -23.4375 5.96875 -22.75 L 5.96875 -32.296875 C 7.625 -32.785156 9.382812 -33.148438 11.25 -33.390625 C 13.113281 -33.640625 15.082031 -33.765625 17.15625 -33.765625 C 22.832031 -33.765625 26.875 -32.546875 29.28125 -30.109375 C 31.695312 -27.671875 32.90625 -23.695312 32.90625 -18.1875 L 32.90625 0 L 23.484375 0 L 22.265625 -3.15625 Z M 19.46875 -13.875 C 17.800781 -13.875 16.59375 -13.609375 15.84375 -13.078125 C 15.09375 -12.546875 14.71875 -11.632812 14.71875 -10.34375 C 14.71875 -9.363281 14.960938 -8.609375 15.453125 -8.078125 C 15.941406 -7.554688 16.609375 -7.296875 17.453125 -7.296875 C 18.347656 -7.296875 19.226562 -7.507812 20.09375 -7.9375 C 20.96875 -8.363281 21.566406 -8.859375 21.890625 -9.421875 L 21.890625 -13.875 Z M 19.46875 -13.875 "/></g></g></g><g fill="#231f20" fill-opacity="1"><g transform="translate(506.61619, 584.611713)"><g><path d="M 28.59375 -1.703125 C 27.09375 -0.929688 25.53125 -0.351562 23.90625 0.03125 C 22.28125 0.414062 20.617188 0.609375 18.921875 0.609375 C 13.929688 0.609375 9.9375 -0.96875 6.9375 -4.125 C 3.9375 -7.289062 2.4375 -11.429688 2.4375 -16.546875 C 2.4375 -21.859375 3.882812 -26.054688 6.78125 -29.140625 C 9.675781 -32.222656 13.722656 -33.765625 18.921875 -33.765625 C 20.867188 -33.765625 22.609375 -33.570312 24.140625 -33.1875 C 25.679688 -32.800781 27.101562 -32.222656 28.40625 -31.453125 L 28.40625 -21.53125 C 27.3125 -22.34375 26.035156 -22.984375 24.578125 -23.453125 C 23.117188 -23.921875 21.65625 -24.15625 20.1875 -24.15625 C 18.320312 -24.15625 16.910156 -23.523438 15.953125 -22.265625 C 15.003906 -21.003906 14.53125 -19.160156 14.53125 -16.734375 C 14.53125 -14.335938 15.015625 -12.5 15.984375 -11.21875 C 16.960938 -9.945312 18.363281 -9.3125 20.1875 -9.3125 C 21.726562 -9.3125 23.226562 -9.539062 24.6875 -10 C 26.15625 -10.46875 27.457031 -11.109375 28.59375 -11.921875 Z M 28.59375 -1.703125 "/></g></g></g><g fill="#231f20" fill-opacity="1"><g transform="translate(535.260119, 584.611713)"><g><path d="M 31.75 -1.28125 C 29.925781 -0.625 28.070312 -0.132812 26.1875 0.1875 C 24.300781 0.507812 22.34375 0.671875 20.3125 0.671875 C 14.84375 0.671875 10.492188 -0.90625 7.265625 -4.0625 C 4.046875 -7.226562 2.4375 -11.550781 2.4375 -17.03125 C 2.4375 -22.101562 3.925781 -26.171875 6.90625 -29.234375 C 9.882812 -32.296875 13.910156 -33.828125 18.984375 -33.828125 C 23.484375 -33.828125 26.96875 -32.617188 29.4375 -30.203125 C 31.914062 -27.785156 33.15625 -24.410156 33.15625 -20.078125 C 33.15625 -18.941406 33.070312 -17.804688 32.90625 -16.671875 C 32.75 -15.535156 32.523438 -14.5 32.234375 -13.5625 L 13.921875 -13.5625 C 14.296875 -11.78125 15.078125 -10.492188 16.265625 -9.703125 C 17.460938 -8.910156 19.238281 -8.515625 21.59375 -8.515625 C 22.96875 -8.515625 24.363281 -8.632812 25.78125 -8.875 C 27.207031 -9.125 29.195312 -9.65625 31.75 -10.46875 Z M 23.234375 -21.84375 C 23.234375 -23.257812 22.835938 -24.363281 22.046875 -25.15625 C 21.253906 -25.945312 20.148438 -26.34375 18.734375 -26.34375 C 17.148438 -26.34375 15.921875 -25.832031 15.046875 -24.8125 C 14.179688 -23.800781 13.726562 -22.320312 13.6875 -20.375 L 23.109375 -20.375 C 23.148438 -20.457031 23.179688 -20.585938 23.203125 -20.765625 C 23.222656 -20.953125 23.234375 -21.3125 23.234375 -21.84375 Z M 23.234375 -21.84375 "/></g></g></g><g fill="#231f20" fill-opacity="1"><g transform="translate(568.465271, 584.611713)"><g><path d="M 24.453125 -2.25 C 23.191406 -1.28125 21.8125 -0.539062 20.3125 -0.03125 C 18.8125 0.476562 17.210938 0.734375 15.515625 0.734375 C 12.023438 0.734375 9.375 -0.238281 7.5625 -2.1875 C 5.757812 -4.132812 4.859375 -6.992188 4.859375 -10.765625 L 4.859375 -33.09375 L 17.03125 -33.09375 L 17.03125 -13.265625 C 17.03125 -11.554688 17.234375 -10.367188 17.640625 -9.703125 C 18.046875 -9.035156 18.796875 -8.703125 19.890625 -8.703125 C 20.742188 -8.703125 21.613281 -8.832031 22.5 -9.09375 C 23.394531 -9.351562 24.128906 -9.707031 24.703125 -10.15625 L 24.703125 -33.09375 L 36.859375 -33.09375 L 36.859375 0 L 24.703125 0 L 24.703125 -2.0625 Z M 24.453125 -2.25 "/></g></g></g><g fill="#231f20" fill-opacity="1"><g transform="translate(607.812882, 584.611713)"><g><path d="M 28.59375 -0.796875 C 27.25 -0.304688 25.847656 0.046875 24.390625 0.265625 C 22.929688 0.492188 21.429688 0.609375 19.890625 0.609375 C 15.753906 0.609375 12.5 -0.472656 10.125 -2.640625 C 7.75 -4.816406 6.5625 -7.8125 6.5625 -11.625 L 6.5625 -24.03125 L 1.21875 -24.03125 L 1.21875 -33.15625 L 6.5625 -33.15625 L 6.5625 -41.90625 L 18.734375 -41.90625 L 18.734375 -33.15625 L 27.984375 -33.15625 L 27.984375 -24.03125 L 18.734375 -24.03125 L 18.734375 -15.515625 C 18.734375 -13.316406 19.066406 -11.820312 19.734375 -11.03125 C 20.410156 -10.25 21.554688 -9.859375 23.171875 -9.859375 C 23.859375 -9.859375 24.660156 -9.925781 25.578125 -10.0625 C 26.492188 -10.207031 27.5 -10.421875 28.59375 -10.703125 Z M 28.59375 -0.796875 "/></g></g></g><g fill="#231f20" fill-opacity="1"><g transform="translate(635.848662, 584.611713)"><g><path d="M 18.25 -45.25 C 18.25 -43.226562 17.546875 -41.535156 16.140625 -40.171875 C 14.742188 -38.816406 13.035156 -38.140625 11.015625 -38.140625 C 8.898438 -38.140625 7.144531 -38.816406 5.75 -40.171875 C 4.351562 -41.535156 3.65625 -43.226562 3.65625 -45.25 C 3.65625 -47.28125 4.351562 -48.960938 5.75 -50.296875 C 7.144531 -51.640625 8.898438 -52.3125 11.015625 -52.3125 C 13.078125 -52.3125 14.796875 -51.640625 16.171875 -50.296875 C 17.554688 -48.960938 18.25 -47.28125 18.25 -45.25 Z M 17.03125 -33.15625 L 17.03125 0 L 4.859375 0 L 4.859375 -33.15625 Z M 17.03125 -33.15625 "/></g></g></g><g fill="#231f20" fill-opacity="1"><g transform="translate(655.370163, 584.611713)"><g><path d="M 28.59375 -1.703125 C 27.09375 -0.929688 25.53125 -0.351562 23.90625 0.03125 C 22.28125 0.414062 20.617188 0.609375 18.921875 0.609375 C 13.929688 0.609375 9.9375 -0.96875 6.9375 -4.125 C 3.9375 -7.289062 2.4375 -11.429688 2.4375 -16.546875 C 2.4375 -21.859375 3.882812 -26.054688 6.78125 -29.140625 C 9.675781 -32.222656 13.722656 -33.765625 18.921875 -33.765625 C 20.867188 -33.765625 22.609375 -33.570312 24.140625 -33.1875 C 25.679688 -32.800781 27.101562 -32.222656 28.40625 -31.453125 L 28.40625 -21.53125 C 27.3125 -22.34375 26.035156 -22.984375 24.578125 -23.453125 C 23.117188 -23.921875 21.65625 -24.15625 20.1875 -24.15625 C 18.320312 -24.15625 16.910156 -23.523438 15.953125 -22.265625 C 15.003906 -21.003906 14.53125 -19.160156 14.53125 -16.734375 C 14.53125 -14.335938 15.015625 -12.5 15.984375 -11.21875 C 16.960938 -9.945312 18.363281 -9.3125 20.1875 -9.3125 C 21.726562 -9.3125 23.226562 -9.539062 24.6875 -10 C 26.15625 -10.46875 27.457031 -11.109375 28.59375 -11.921875 Z M 28.59375 -1.703125 "/></g></g></g><g fill="#231f20" fill-opacity="1"><g transform="translate(684.014111, 584.611713)"><g><path d="M 22.015625 -3.21875 C 20.554688 -1.757812 19.144531 -0.742188 17.78125 -0.171875 C 16.425781 0.390625 14.859375 0.671875 13.078125 0.671875 C 9.953125 0.671875 7.5 -0.269531 5.71875 -2.15625 C 3.9375 -4.039062 3.046875 -6.566406 3.046875 -9.734375 C 3.046875 -13.222656 4.332031 -15.816406 6.90625 -17.515625 C 9.476562 -19.222656 13.398438 -20.078125 18.671875 -20.078125 L 20.796875 -20.078125 C 20.835938 -20.191406 20.859375 -20.320312 20.859375 -20.46875 C 20.859375 -20.613281 20.859375 -20.925781 20.859375 -21.40625 C 20.859375 -22.5 20.398438 -23.300781 19.484375 -23.8125 C 18.578125 -24.320312 17.171875 -24.578125 15.265625 -24.578125 C 13.679688 -24.578125 12.203125 -24.441406 10.828125 -24.171875 C 9.453125 -23.910156 7.832031 -23.4375 5.96875 -22.75 L 5.96875 -32.296875 C 7.625 -32.785156 9.382812 -33.148438 11.25 -33.390625 C 13.113281 -33.640625 15.082031 -33.765625 17.15625 -33.765625 C 22.832031 -33.765625 26.875 -32.546875 29.28125 -30.109375 C 31.695312 -27.671875 32.90625 -23.695312 32.90625 -18.1875 L 32.90625 0 L 23.484375 0 L 22.265625 -3.15625 Z M 19.46875 -13.875 C 17.800781 -13.875 16.59375 -13.609375 15.84375 -13.078125 C 15.09375 -12.546875 14.71875 -11.632812 14.71875 -10.34375 C 14.71875 -9.363281 14.960938 -8.609375 15.453125 -8.078125 C 15.941406 -7.554688 16.609375 -7.296875 17.453125 -7.296875 C 18.347656 -7.296875 19.226562 -7.507812 20.09375 -7.9375 C 20.96875 -8.363281 21.566406 -8.859375 21.890625 -9.421875 L 21.890625 -13.875 Z M 19.46875 -13.875 "/></g></g></g><g fill="#231f20" fill-opacity="1"><g transform="translate(718.800498, 584.611713)"><g><path d="M 17.03125 -48.109375 L 17.03125 0 L 4.859375 0 L 4.859375 -48.109375 Z M 17.03125 -48.109375 "/></g></g></g><g fill="#231f20" fill-opacity="1"><g transform="translate(738.325793, 584.611713)"><g/></g></g><g fill="#a0a0a0" fill-opacity="1"><g transform="translate(276.312609, 644.756663)"><g><path d="M 36.125 -14.234375 C 36.125 -9.367188 34.484375 -5.675781 31.203125 -3.15625 C 27.921875 -0.644531 23.097656 0.609375 16.734375 0.609375 C 14.171875 0.609375 11.796875 0.425781 9.609375 0.0625 C 7.421875 -0.300781 5.234375 -0.867188 3.046875 -1.640625 L 3.046875 -12.953125 C 5.023438 -11.816406 7.210938 -10.941406 9.609375 -10.328125 C 12.003906 -9.722656 14.4375 -9.421875 16.90625 -9.421875 C 18.851562 -9.421875 20.3125 -9.722656 21.28125 -10.328125 C 22.257812 -10.941406 22.75 -11.859375 22.75 -13.078125 C 22.75 -13.929688 22.351562 -14.710938 21.5625 -15.421875 C 20.769531 -16.128906 18.976562 -17.050781 16.1875 -18.1875 C 13.507812 -19.320312 11.53125 -20.265625 10.25 -21.015625 C 8.96875 -21.765625 7.863281 -22.585938 6.9375 -23.484375 C 5.632812 -24.734375 4.660156 -26.160156 4.015625 -27.765625 C 3.367188 -29.367188 3.046875 -31.164062 3.046875 -33.15625 C 3.046875 -37.53125 4.644531 -40.929688 7.84375 -43.359375 C 11.050781 -45.796875 15.535156 -47.015625 21.296875 -47.015625 C 23.640625 -47.015625 25.945312 -46.78125 28.21875 -46.3125 C 30.488281 -45.851562 32.457031 -45.195312 34.125 -44.34375 L 34.125 -32.421875 C 32.539062 -33.753906 30.570312 -34.816406 28.21875 -35.609375 C 25.875 -36.398438 23.503906 -36.796875 21.109375 -36.796875 C 19.398438 -36.796875 18.140625 -36.5625 17.328125 -36.09375 C 16.523438 -35.632812 16.125 -34.914062 16.125 -33.9375 C 16.125 -33.007812 16.554688 -32.148438 17.421875 -31.359375 C 18.296875 -30.566406 20.234375 -29.519531 23.234375 -28.21875 C 25.785156 -27.125 27.679688 -26.222656 28.921875 -25.515625 C 30.160156 -24.804688 31.226562 -24.066406 32.125 -23.296875 C 33.457031 -22.078125 34.457031 -20.71875 35.125 -19.21875 C 35.789062 -17.71875 36.125 -16.054688 36.125 -14.234375 Z M 36.125 -14.234375 "/></g></g></g><g fill="#a0a0a0" fill-opacity="1"><g transform="translate(313.105928, 644.756663)"><g><path d="M 31.75 -1.28125 C 29.925781 -0.625 28.070312 -0.132812 26.1875 0.1875 C 24.300781 0.507812 22.34375 0.671875 20.3125 0.671875 C 14.84375 0.671875 10.492188 -0.90625 7.265625 -4.0625 C 4.046875 -7.226562 2.4375 -11.550781 2.4375 -17.03125 C 2.4375 -22.101562 3.925781 -26.171875 6.90625 -29.234375 C 9.882812 -32.296875 13.910156 -33.828125 18.984375 -33.828125 C 23.484375 -33.828125 26.96875 -32.617188 29.4375 -30.203125 C 31.914062 -27.785156 33.15625 -24.410156 33.15625 -20.078125 C 33.15625 -18.941406 33.070312 -17.804688 32.90625 -16.671875 C 32.75 -15.535156 32.523438 -14.5 32.234375 -13.5625 L 13.921875 -13.5625 C 14.296875 -11.78125 15.078125 -10.492188 16.265625 -9.703125 C 17.460938 -8.910156 19.238281 -8.515625 21.59375 -8.515625 C 22.96875 -8.515625 24.363281 -8.632812 25.78125 -8.875 C 27.207031 -9.125 29.195312 -9.65625 31.75 -10.46875 Z M 23.234375 -21.84375 C 23.234375 -23.257812 22.835938 -24.363281 22.046875 -25.15625 C 21.253906 -25.945312 20.148438 -26.34375 18.734375 -26.34375 C 17.148438 -26.34375 15.921875 -25.832031 15.046875 -24.8125 C 14.179688 -23.800781 13.726562 -22.320312 13.6875 -20.375 L 23.109375 -20.375 C 23.148438 -20.457031 23.179688 -20.585938 23.203125 -20.765625 C 23.222656 -20.953125 23.234375 -21.3125 23.234375 -21.84375 Z M 23.234375 -21.84375 "/></g></g></g><g fill="#a0a0a0" fill-opacity="1"><g transform="translate(346.311088, 644.756663)"><g><path d="M 17.03125 -17.765625 L 17.03125 0 L 4.859375 0 L 4.859375 -33.15625 L 17.03125 -33.15625 L 17.03125 -29.203125 L 17.28125 -29.015625 C 18.78125 -30.753906 20.207031 -31.988281 21.5625 -32.71875 C 22.914062 -33.457031 24.363281 -33.828125 25.90625 -33.828125 C 26.3125 -33.828125 26.738281 -33.804688 27.1875 -33.765625 C 27.632812 -33.722656 28.125 -33.640625 28.65625 -33.515625 L 28.65625 -21.046875 C 27.882812 -21.171875 27.34375 -21.242188 27.03125 -21.265625 C 26.726562 -21.285156 26.457031 -21.296875 26.21875 -21.296875 C 23.863281 -21.296875 21.96875 -21.019531 20.53125 -20.46875 C 19.09375 -19.914062 17.925781 -19.015625 17.03125 -17.765625 Z M 17.03125 -17.765625 "/></g></g></g><g fill="#a0a0a0" fill-opacity="1"><g transform="translate(373.799517, 644.756663)"><g><path d="M 36.078125 -33.15625 L 23.484375 0 L 12.53125 0 L 0 -33.15625 L 13.015625 -33.15625 L 16.734375 -18.1875 C 17.097656 -16.726562 17.378906 -15.476562 17.578125 -14.4375 C 17.785156 -13.40625 17.90625 -12.609375 17.9375 -12.046875 L 18.125 -12.046875 C 18.164062 -12.609375 18.285156 -13.40625 18.484375 -14.4375 C 18.691406 -15.476562 18.976562 -16.726562 19.34375 -18.1875 L 23 -33.15625 Z M 36.078125 -33.15625 "/></g></g></g><g fill="#a0a0a0" fill-opacity="1"><g transform="translate(407.491212, 644.756663)"><g><path d="M 18.25 -45.25 C 18.25 -43.226562 17.546875 -41.535156 16.140625 -40.171875 C 14.742188 -38.816406 13.035156 -38.140625 11.015625 -38.140625 C 8.898438 -38.140625 7.144531 -38.816406 5.75 -40.171875 C 4.351562 -41.535156 3.65625 -43.226562 3.65625 -45.25 C 3.65625 -47.28125 4.351562 -48.960938 5.75 -50.296875 C 7.144531 -51.640625 8.898438 -52.3125 11.015625 -52.3125 C 13.078125 -52.3125 14.796875 -51.640625 16.171875 -50.296875 C 17.554688 -48.960938 18.25 -47.28125 18.25 -45.25 Z M 17.03125 -33.15625 L 17.03125 0 L 4.859375 0 L 4.859375 -33.15625 Z M 17.03125 -33.15625 "/></g></g></g><g fill="#a0a0a0" fill-opacity="1"><g transform="translate(427.012713, 644.756663)"><g><path d="M 28.59375 -1.703125 C 27.09375 -0.929688 25.53125 -0.351562 23.90625 0.03125 C 22.28125 0.414062 20.617188 0.609375 18.921875 0.609375 C 13.929688 0.609375 9.9375 -0.96875 6.9375 -4.125 C 3.9375 -7.289062 2.4375 -11.429688 2.4375 -16.546875 C 2.4375 -21.859375 3.882812 -26.054688 6.78125 -29.140625 C 9.675781 -32.222656 13.722656 -33.765625 18.921875 -33.765625 C 20.867188 -33.765625 22.609375 -33.570312 24.140625 -33.1875 C 25.679688 -32.800781 27.101562 -32.222656 28.40625 -31.453125 L 28.40625 -21.53125 C 27.3125 -22.34375 26.035156 -22.984375 24.578125 -23.453125 C 23.117188 -23.921875 21.65625 -24.15625 20.1875 -24.15625 C 18.320312 -24.15625 16.910156 -23.523438 15.953125 -22.265625 C 15.003906 -21.003906 14.53125 -19.160156 14.53125 -16.734375 C 14.53125 -14.335938 15.015625 -12.5 15.984375 -11.21875 C 16.960938 -9.945312 18.363281 -9.3125 20.1875 -9.3125 C 21.726562 -9.3125 23.226562 -9.539062 24.6875 -10 C 26.15625 -10.46875 27.457031 -11.109375 28.59375 -11.921875 Z M 28.59375 -1.703125 "/></g></g></g><g fill="#a0a0a0" fill-opacity="1"><g transform="translate(455.656642, 644.756663)"><g><path d="M 31.75 -1.28125 C 29.925781 -0.625 28.070312 -0.132812 26.1875 0.1875 C 24.300781 0.507812 22.34375 0.671875 20.3125 0.671875 C 14.84375 0.671875 10.492188 -0.90625 7.265625 -4.0625 C 4.046875 -7.226562 2.4375 -11.550781 2.4375 -17.03125 C 2.4375 -22.101562 3.925781 -26.171875 6.90625 -29.234375 C 9.882812 -32.296875 13.910156 -33.828125 18.984375 -33.828125 C 23.484375 -33.828125 26.96875 -32.617188 29.4375 -30.203125 C 31.914062 -27.785156 33.15625 -24.410156 33.15625 -20.078125 C 33.15625 -18.941406 33.070312 -17.804688 32.90625 -16.671875 C 32.75 -15.535156 32.523438 -14.5 32.234375 -13.5625 L 13.921875 -13.5625 C 14.296875 -11.78125 15.078125 -10.492188 16.265625 -9.703125 C 17.460938 -8.910156 19.238281 -8.515625 21.59375 -8.515625 C 22.96875 -8.515625 24.363281 -8.632812 25.78125 -8.875 C 27.207031 -9.125 29.195312 -9.65625 31.75 -10.46875 Z M 23.234375 -21.84375 C 23.234375 -23.257812 22.835938 -24.363281 22.046875 -25.15625 C 21.253906 -25.945312 20.148438 -26.34375 18.734375 -26.34375 C 17.148438 -26.34375 15.921875 -25.832031 15.046875 -24.8125 C 14.179688 -23.800781 13.726562 -22.320312 13.6875 -20.375 L 23.109375 -20.375 C 23.148438 -20.457031 23.179688 -20.585938 23.203125 -20.765625 C 23.222656 -20.953125 23.234375 -21.3125 23.234375 -21.84375 Z M 23.234375 -21.84375 "/></g></g></g><g fill="#a0a0a0" fill-opacity="1"><g transform="translate(488.861795, 644.756663)"><g><path d="M 29.4375 -10.34375 C 29.4375 -7.050781 28.148438 -4.378906 25.578125 -2.328125 C 23.003906 -0.285156 19.726562 0.734375 15.75 0.734375 C 13.5625 0.734375 11.421875 0.5625 9.328125 0.21875 C 7.242188 -0.125 5.367188 -0.625 3.703125 -1.28125 L 3.703125 -11.015625 C 5.242188 -10.160156 6.988281 -9.457031 8.9375 -8.90625 C 10.882812 -8.363281 12.671875 -8.09375 14.296875 -8.09375 C 15.554688 -8.09375 16.46875 -8.234375 17.03125 -8.515625 C 17.601562 -8.796875 17.890625 -9.242188 17.890625 -9.859375 C 17.890625 -10.335938 17.632812 -10.75 17.125 -11.09375 C 16.613281 -11.445312 15.46875 -11.863281 13.6875 -12.34375 C 11.570312 -12.957031 9.988281 -13.503906 8.9375 -13.984375 C 7.882812 -14.472656 6.992188 -15.0625 6.265625 -15.75 C 5.296875 -16.644531 4.566406 -17.707031 4.078125 -18.9375 C 3.585938 -20.175781 3.34375 -21.585938 3.34375 -23.171875 C 3.34375 -26.617188 4.546875 -29.242188 6.953125 -31.046875 C 9.367188 -32.859375 12.890625 -33.765625 17.515625 -33.765625 C 19.296875 -33.765625 21.03125 -33.640625 22.71875 -33.390625 C 24.40625 -33.148438 26.117188 -32.765625 27.859375 -32.234375 L 27.859375 -22.8125 C 26.804688 -23.414062 25.328125 -23.929688 23.421875 -24.359375 C 21.515625 -24.785156 19.707031 -25 18 -25 C 16.863281 -25 16.0625 -24.875 15.59375 -24.625 C 15.132812 -24.382812 14.90625 -23.960938 14.90625 -23.359375 C 14.90625 -22.910156 15.144531 -22.523438 15.625 -22.203125 C 16.113281 -21.878906 17.253906 -21.472656 19.046875 -20.984375 C 21.109375 -20.378906 22.664062 -19.832031 23.71875 -19.34375 C 24.769531 -18.851562 25.664062 -18.285156 26.40625 -17.640625 C 27.414062 -16.742188 28.171875 -15.6875 28.671875 -14.46875 C 29.179688 -13.257812 29.4375 -11.882812 29.4375 -10.34375 Z M 29.4375 -10.34375 "/></g></g></g><g fill="#a0a0a0" fill-opacity="1"><g transform="translate(518.968151, 644.756663)"><g/></g></g><g fill="#000000" fill-opacity="1"><g transform="translate(376.671233, 728.034286)"><g/></g></g><g fill="#000000" fill-opacity="1"><g transform="translate(408.311744, 728.034286)"><g/></g></g></svg>